<?xml version="1.0" encoding="UTF-8" standalone="no"?>
<svg width="512" height="512" viewBox="0 0 512 512" fill="none" xmlns="http://www.w3.org/2000/svg">
  <!-- Background -->
  <rect width="512" height="512" rx="64" fill="#2d1b69"/>
  
  <!-- Chat bubble design -->
  <path d="M384 144H128C114.7 144 104 154.7 104 168V312C104 325.3 114.7 336 128 336H211.2L240 384L268.8 336H384C397.3 336 408 325.3 408 312V168C408 154.7 397.3 144 384 144Z" fill="#9d6aea" stroke="white" stroke-width="8"/>
  
  <!-- Subtle inner pattern -->
  <path d="M224 208C224 221.3 213.3 232 200 232C186.7 232 176 221.3 176 208C176 194.7 186.7 184 200 184C213.3 184 224 194.7 224 208Z" fill="white"/>
  <path d="M336 208C336 221.3 325.3 232 312 232C298.7 232 288 221.3 288 208C288 194.7 298.7 184 312 184C325.3 184 336 194.7 336 208Z" fill="white"/>
  <path d="M242 264C242 264 255 288 270 288C285 288 298 264 298 264" stroke="white" stroke-width="8" stroke-linecap="round"/>
</svg>
