<?xml version="1.0" encoding="UTF-8" standalone="no"?>
<svg width="1024" height="1024" viewBox="0 0 512 512" fill="none" xmlns="http://www.w3.org/2000/svg">
  <!-- Background -->
  <rect width="512" height="512" fill="#2d1b69"/>
  
  <!-- App name -->
  <text x="256" y="440" font-family="Arial" font-size="72" font-weight="bold" fill="white" text-anchor="middle">ChunRP</text>
  
  <!-- Stylized chat icon -->
  <path d="M384 144H128C114.7 144 104 154.7 104 168V312C104 325.3 114.7 336 128 336H211.2L240 384L268.8 336H384C397.3 336 408 325.3 408 312V168C408 154.7 397.3 144 384 144Z" fill="#9d6aea" stroke="white" stroke-width="12"/>
  
  <!-- Decorative elements -->
  <circle cx="200" cy="240" r="24" fill="white"/>
  <circle cx="312" cy="240" r="24" fill="white"/>
  <path d="M242 284C242 284 255 308 270 308C285 308 298 284 298 284" stroke="white" stroke-width="12" stroke-linecap="round"/>
</svg>
